<svg width="295" height="94" viewBox="0 0 295 94" fill="none" xmlns="http://www.w3.org/2000/svg">
<g clip-path="url(#clip0)">
<path d="M293.27 22.99C293.3 38.48 293.33 53.84 293.36 69.5C219.09 77.07 144.81 84.64 70.54 92.21C47.41 86.18 24.29 80.15 1.17 74.12C1.11 55.89 1.06 37.65 1 19.41C24.2 13.28 47.39 7.14001 70.59 1.01001C144.82 8.34001 219.04 15.66 293.27 22.99Z" fill="#DADADA" stroke="black" stroke-width="2" stroke-miterlimit="10"/>
<path d="M46.98 51.62C46.51 51.95 45.97 52.2 45.34 52.37C44.71 52.54 44.05 52.62 43.36 52.62C42.48 52.62 41.73 52.49 41.11 52.22C40.49 51.95 39.99 51.58 39.6 51.1C39.21 50.62 38.93 50.04 38.76 49.36C38.59 48.68 38.5 47.93 38.5 47.1C38.5 45.33 38.93 43.96 39.79 42.99C40.65 42.02 41.89 41.54 43.5 41.54C44.21 41.54 44.82 41.6 45.34 41.73C45.86 41.86 46.33 42.01 46.74 42.2L46.26 43.7C45.9 43.51 45.51 43.37 45.1 43.26C44.68 43.15 44.23 43.1 43.74 43.1C41.58 43.1 40.5 44.43 40.5 47.1C40.5 47.61 40.56 48.1 40.68 48.57C40.8 49.04 40.99 49.46 41.26 49.83C41.53 50.2 41.87 50.49 42.3 50.72C42.73 50.95 43.26 51.06 43.88 51.06C44.44 51.06 44.92 50.98 45.34 50.83C45.76 50.68 46.11 50.49 46.38 50.28L46.98 51.62Z" fill="black"/>
<path d="M53.4806 45.86C53.9106 45.79 54.3006 45.75 54.6706 45.73C55.0406 45.71 55.3706 45.7 55.6606 45.7C56.4306 45.7 57.0806 45.78 57.6106 45.94C58.1406 46.1 58.5606 46.32 58.8806 46.6C59.2006 46.88 59.4306 47.21 59.5606 47.59C59.6906 47.97 59.7606 48.38 59.7606 48.82C59.7606 50.09 59.3706 51.01 58.6006 51.59C57.8306 52.17 56.5706 52.46 54.8206 52.46C54.2606 52.46 53.7206 52.45 53.2006 52.44C52.6806 52.43 52.1606 52.4 51.6406 52.36V41.84H53.4806V45.86V45.86ZM53.4806 50.78C54.0306 50.86 54.6006 50.9 55.1806 50.9C56.1306 50.9 56.8006 50.73 57.1806 50.4C57.5606 50.07 57.7506 49.59 57.7506 48.98C57.7506 48.45 57.5606 48 57.1906 47.64C56.8106 47.28 56.1606 47.1 55.2406 47.1C54.9906 47.1 54.7106 47.11 54.4006 47.13C54.0906 47.15 53.7806 47.19 53.4806 47.26V50.78V50.78ZM61.7006 41.84H63.5406V52.34H61.7006V41.84Z" fill="black"/>
<path d="M75.8205 43.4H70.9006V52.34H69.0605V41.84H75.8205V43.4V43.4Z" fill="black"/>
<path d="M79.5801 41.84H80.8201L81.1801 43.18H81.3601C81.7201 42.66 82.1901 42.26 82.7601 41.97C83.3301 41.68 83.9801 41.54 84.7001 41.54C86.2201 41.54 87.3501 41.96 88.1001 42.81C88.8501 43.66 89.2201 45.01 89.2201 46.86C89.2201 47.74 89.1001 48.54 88.8501 49.25C88.6001 49.96 88.2501 50.57 87.7901 51.07C87.3301 51.57 86.7701 51.95 86.1101 52.22C85.4501 52.49 84.7101 52.62 83.9001 52.62C83.6301 52.62 83.3901 52.61 83.1701 52.59C82.9501 52.57 82.7501 52.54 82.5601 52.49C82.3701 52.44 82.1901 52.39 82.0001 52.33C81.8101 52.27 81.6201 52.2 81.4201 52.12V56.34H79.5801V41.84ZM84.2601 43.1C83.4701 43.1 82.8401 43.3 82.3901 43.7C81.9401 44.1 81.6201 44.71 81.4201 45.54V50.38C81.7201 50.59 82.0601 50.76 82.4101 50.88C82.7601 51 83.2201 51.06 83.7801 51.06C84.8501 51.06 85.6901 50.71 86.3001 50C86.9101 49.29 87.2101 48.24 87.2101 46.84C87.2101 45.71 86.9801 44.8 86.5301 44.12C86.1001 43.44 85.3301 43.1 84.2601 43.1Z" fill="black"/>
<path d="M94.0603 42.5C95.2603 41.93 96.7503 41.64 98.5203 41.64C99.3203 41.64 99.9603 41.74 100.45 41.95C100.94 42.16 101.31 42.42 101.58 42.74C101.85 43.06 102.02 43.42 102.11 43.81C102.2 44.2 102.24 44.59 102.24 44.98C102.24 45.71 102.21 46.45 102.16 47.19C102.11 47.93 102.08 48.73 102.08 49.6C102.08 50.11 102.1 50.6 102.15 51.07C102.2 51.54 102.27 51.98 102.38 52.38H101.04L100.54 50.78H100.34C100.19 50.98 100.01 51.18 99.8003 51.39C99.5903 51.6 99.3303 51.78 99.0403 51.94C98.7503 52.1 98.4103 52.23 98.0303 52.34C97.6503 52.45 97.2103 52.5 96.7203 52.5C96.2303 52.5 95.7703 52.43 95.3603 52.29C94.9503 52.15 94.5903 51.95 94.2903 51.7C93.9903 51.45 93.7503 51.14 93.5803 50.77C93.4103 50.4 93.3203 49.99 93.3203 49.54C93.3203 48.94 93.4503 48.42 93.7103 47.98C93.9703 47.54 94.3103 47.18 94.7203 46.9C95.1303 46.62 95.6003 46.41 96.1303 46.28C96.6603 46.15 97.1803 46.08 97.7003 46.08C98.1103 46.08 98.4603 46.09 98.7503 46.1C99.0403 46.11 99.2803 46.13 99.4703 46.15C99.6603 46.17 99.8303 46.19 99.9603 46.21C100.09 46.23 100.21 46.25 100.32 46.26C100.35 46.06 100.37 45.89 100.38 45.74C100.39 45.59 100.4 45.41 100.4 45.18C100.4 44.81 100.36 44.49 100.28 44.24C100.2 43.99 100.07 43.78 99.8903 43.63C99.7103 43.48 99.4703 43.37 99.1603 43.3C98.8503 43.23 98.4803 43.2 98.0403 43.2C97.7903 43.2 97.5103 43.22 97.2003 43.26C96.8903 43.3 96.5903 43.36 96.2803 43.43C95.9703 43.5 95.6703 43.59 95.3703 43.7C95.0703 43.81 94.8003 43.92 94.5603 44.04L94.0603 42.5ZM100.32 47.58C100.21 47.57 100.1 47.55 99.9803 47.52C99.8603 47.49 99.7103 47.47 99.5303 47.46C99.3503 47.45 99.1403 47.43 98.9003 47.42C98.6503 47.41 98.3503 47.4 98.0003 47.4C97.1803 47.4 96.5303 47.55 96.0503 47.84C95.5703 48.13 95.3303 48.63 95.3303 49.34C95.3303 49.87 95.5203 50.27 95.8903 50.54C96.2703 50.81 96.7503 50.94 97.3503 50.94C97.7903 50.94 98.1703 50.88 98.5103 50.77C98.8503 50.66 99.1403 50.52 99.3803 50.35C99.6303 50.18 99.8203 50 99.9803 49.79C100.14 49.58 100.25 49.38 100.33 49.18V47.58H100.32Z" fill="black"/>
<path d="M116.36 51.48C115.89 51.83 115.31 52.1 114.62 52.31C113.93 52.52 113.17 52.62 112.36 52.62C111.48 52.62 110.72 52.49 110.07 52.23C109.42 51.97 108.89 51.6 108.48 51.12C108.07 50.64 107.76 50.06 107.56 49.38C107.36 48.7 107.26 47.94 107.26 47.1C107.26 45.3 107.7 43.92 108.59 42.97C109.48 42.02 110.74 41.54 112.38 41.54C112.9 41.54 113.42 41.6 113.94 41.71C114.46 41.82 114.93 42.04 115.34 42.35C115.75 42.66 116.09 43.09 116.35 43.64C116.61 44.19 116.74 44.9 116.74 45.78C116.74 45.99 116.73 46.24 116.72 46.52C116.71 46.8 116.68 47.07 116.64 47.34H109.14C109.17 48.57 109.46 49.49 110.02 50.12C110.58 50.75 111.53 51.06 112.88 51.06C113.44 51.06 113.97 50.96 114.48 50.77C114.99 50.58 115.38 50.35 115.66 50.08L116.36 51.48ZM114.98 46.02C115.01 44.95 114.79 44.2 114.33 43.76C113.87 43.32 113.23 43.1 112.4 43.1C111.47 43.1 110.73 43.32 110.18 43.76C109.63 44.2 109.31 44.95 109.22 46.02H114.98Z" fill="black"/>
<path d="M131.459 46.4L131.579 44.26H131.339L130.449 45.9L127.779 49.88H127.159L124.319 45.9L123.519 44.26H123.299L123.479 46.38V52.34H121.779V41.84H123.699L126.839 46.46L127.599 47.92L128.429 46.42L131.339 41.84H133.299V52.34H131.459V46.4V46.4Z" fill="black"/>
<path d="M146.641 41.84L147.401 41.8C147.831 41.77 148.291 41.74 148.801 41.71C149.311 41.68 149.891 41.66 150.561 41.66C152.111 41.66 153.221 41.88 153.891 42.31C154.561 42.74 154.901 43.39 154.901 44.24C154.901 44.71 154.741 45.18 154.411 45.65C154.081 46.12 153.571 46.47 152.861 46.68V46.9C153.741 47.07 154.371 47.37 154.751 47.78C155.131 48.19 155.321 48.74 155.321 49.42C155.321 50.47 154.891 51.25 154.021 51.75C153.151 52.25 151.851 52.5 150.101 52.5C149.511 52.5 148.961 52.48 148.441 52.45C147.921 52.42 147.411 52.38 146.921 52.34C146.871 52.34 146.821 52.34 146.781 52.33C146.741 52.32 146.691 52.32 146.641 52.32V41.84V41.84ZM150.761 46.28C151.051 46.28 151.331 46.24 151.601 46.16C151.871 46.08 152.111 45.97 152.321 45.83C152.531 45.68 152.701 45.52 152.831 45.33C152.961 45.14 153.021 44.93 153.021 44.71C153.021 44.16 152.831 43.77 152.451 43.56C152.071 43.34 151.421 43.23 150.501 43.23C150.191 43.23 149.881 43.24 149.571 43.26C149.261 43.28 148.891 43.3 148.481 43.31V46.29H150.761V46.28ZM148.481 50.9C148.771 50.94 149.061 50.97 149.331 50.99C149.611 51.01 149.951 51.02 150.361 51.02C151.401 51.02 152.161 50.88 152.621 50.61C153.081 50.34 153.311 49.89 153.311 49.26C153.311 49.01 153.261 48.77 153.171 48.56C153.081 48.35 152.931 48.17 152.711 48.02C152.501 47.87 152.211 47.76 151.851 47.67C151.491 47.58 151.041 47.54 150.511 47.54H148.471V50.9H148.481Z" fill="black"/>
<path d="M174.301 48.2L172.401 48.46L169.421 52.34H167.141L169.781 48.9V48.92L170.901 48.16C169.971 48.05 169.231 47.72 168.691 47.17C168.151 46.62 167.881 45.94 167.881 45.14C167.881 44.51 168.001 43.97 168.241 43.52C168.481 43.07 168.821 42.69 169.271 42.4C169.721 42.11 170.261 41.89 170.891 41.76C171.521 41.63 172.231 41.56 173.021 41.56C173.531 41.56 174.061 41.59 174.611 41.66C175.161 41.73 175.671 41.81 176.141 41.92V52.34H174.301V48.2ZM174.301 47.06V43.28C174.091 43.21 173.851 43.17 173.581 43.15C173.311 43.13 173.071 43.12 172.881 43.12C171.891 43.12 171.141 43.28 170.641 43.6C170.141 43.92 169.891 44.43 169.891 45.12C169.891 45.79 170.181 46.29 170.771 46.62C171.361 46.95 172.131 47.11 173.081 47.08L174.301 47.06Z" fill="black"/>
<path d="M196.94 55.12H195.72L195.38 52.34H181.66V41.84H183.5V50.78H187.54V41.84H189.38V50.78H193.42V41.84H195.26V50.78H196.94V55.12Z" fill="black"/>
<path d="M208.36 46.34L208.64 44.26H208.42L207.44 46.22L202.52 52.34H201.1V41.84H202.94V48.04L202.8 49.88H203.02L203.94 48.1L208.76 41.84H210.2V52.34H208.36V46.34V46.34Z" fill="black"/>
<path d="M218.701 47.62H217.561V52.34H215.721V41.84H217.561V46.62L218.661 46.26L222.241 41.84H224.261L220.841 45.92H220.861L219.781 46.7L221.081 47.6L224.781 52.34H222.461L218.701 47.62Z" fill="black"/>
<path d="M230.101 48.66C230.051 47.99 230.101 47.42 230.251 46.94C230.401 46.46 230.611 46.03 230.881 45.66C231.151 45.29 231.441 44.95 231.771 44.66C232.101 44.37 232.401 44.07 232.691 43.78C232.981 43.48 233.221 43.17 233.411 42.83C233.601 42.49 233.701 42.1 233.701 41.66C233.701 41.07 233.521 40.58 233.171 40.21C232.821 39.83 232.201 39.64 231.321 39.64C230.791 39.64 230.241 39.74 229.691 39.95C229.141 40.16 228.671 40.38 228.281 40.62L227.641 39.18C228.201 38.83 228.791 38.56 229.421 38.37C230.051 38.18 230.821 38.08 231.741 38.08C232.391 38.08 232.971 38.17 233.461 38.34C233.951 38.51 234.371 38.75 234.701 39.05C235.031 39.35 235.281 39.7 235.451 40.11C235.621 40.52 235.701 40.95 235.701 41.42C235.701 42.05 235.601 42.58 235.401 43.03C235.201 43.48 234.951 43.87 234.661 44.22C234.371 44.57 234.051 44.89 233.701 45.18C233.351 45.47 233.031 45.78 232.741 46.11C232.451 46.44 232.201 46.8 232.001 47.2C231.801 47.6 231.701 48.09 231.701 48.66H230.101ZM229.661 51.32C229.661 50.93 229.781 50.63 230.031 50.4C230.281 50.17 230.601 50.06 231.001 50.06C231.401 50.06 231.721 50.17 231.971 50.4C232.221 50.63 232.341 50.93 232.341 51.32C232.341 51.68 232.221 51.98 231.971 52.22C231.721 52.46 231.401 52.58 231.001 52.58C230.601 52.58 230.281 52.46 230.031 52.22C229.781 51.98 229.661 51.68 229.661 51.32Z" fill="black"/>
</g>
<defs>
<clipPath id="clip0">
<rect width="294.36" height="93.22" fill="white"/>
</clipPath>
</defs>
</svg>
