<svg width="296" height="94" viewBox="0 0 296 94" fill="none" xmlns="http://www.w3.org/2000/svg">
<g clip-path="url(#clip0)">
<path d="M294.153 23.2625C294.183 38.7525 294.213 54.1125 294.243 69.7725C219.973 77.3425 145.693 84.9125 71.4228 92.4825C48.2928 86.4525 25.1728 80.4225 2.05281 74.3925C1.99281 56.1625 1.94281 37.9225 1.88281 19.6825C25.0828 13.5525 48.2728 7.41253 71.4728 1.28253C145.703 8.61253 219.923 15.9325 294.153 23.2625Z" fill="#1E1E1E" stroke="white" stroke-width="2" stroke-miterlimit="10"/>
<path d="M44.332 45.6025C44.332 44.7325 44.442 43.9625 44.672 43.2725C44.902 42.5825 45.232 42.0025 45.672 41.5225C46.112 41.0425 46.652 40.6725 47.282 40.4225C47.912 40.1725 48.642 40.0425 49.452 40.0425C50.302 40.0425 51.052 40.1825 51.692 40.4625C52.332 40.7425 52.862 41.1325 53.292 41.6325C53.722 42.1325 54.032 42.7225 54.242 43.3925C54.452 44.0625 54.552 44.8025 54.552 45.6025C54.552 46.4525 54.432 47.2225 54.202 47.9025C53.972 48.5825 53.632 49.1625 53.202 49.6425C52.772 50.1225 52.232 50.4925 51.602 50.7425C50.972 50.9925 50.252 51.1225 49.452 51.1225C48.572 51.1225 47.812 50.9825 47.172 50.7025C46.532 50.4225 46.002 50.0325 45.582 49.5425C45.162 49.0525 44.852 48.4625 44.642 47.7925C44.432 47.1225 44.332 46.3925 44.332 45.6025ZM46.332 45.6025C46.332 46.0925 46.392 46.5825 46.502 47.0525C46.612 47.5225 46.792 47.9525 47.042 48.3225C47.292 48.6925 47.612 48.9925 48.012 49.2225C48.402 49.4525 48.892 49.5625 49.472 49.5625C51.522 49.5625 52.552 48.2425 52.552 45.6025C52.552 45.0825 52.492 44.5825 52.382 44.1025C52.272 43.6225 52.092 43.2025 51.852 42.8325C51.612 42.4625 51.292 42.1725 50.892 41.9425C50.492 41.7125 50.022 41.6025 49.472 41.6025C48.442 41.6025 47.662 41.9325 47.132 42.5925C46.602 43.2525 46.332 44.2625 46.332 45.6025Z" fill="white"/>
<path d="M66.5516 41.9025H62.9116V50.8425H61.0716V41.9025H57.4316V40.3425H66.5516V41.9025Z" fill="white"/>
<path d="M78.6129 44.7625H83.3929C83.3129 43.8025 83.0029 43.0325 82.4529 42.4625C81.9029 41.8925 81.1129 41.6025 80.0729 41.6025C79.4529 41.6025 78.9129 41.6825 78.4529 41.8525C77.9929 42.0225 77.6129 42.1925 77.3129 42.3825L76.7129 41.0225C77.1829 40.7125 77.7229 40.4725 78.3329 40.3025C78.9429 40.1325 79.6629 40.0425 80.4929 40.0425C81.3329 40.0425 82.0629 40.1725 82.6829 40.4225C83.3029 40.6725 83.8129 41.0425 84.2229 41.5225C84.6329 42.0025 84.9329 42.5825 85.1229 43.2725C85.3129 43.9625 85.4129 44.7325 85.4129 45.6025C85.4129 47.3925 84.9629 48.7525 84.0529 49.7025C83.1429 50.6525 81.9029 51.1225 80.3129 51.1225C79.5929 51.1225 78.9129 51.0625 78.2729 50.9525C77.6329 50.8425 77.1129 50.6725 76.7129 50.4425L77.2129 48.9225C77.5729 49.1125 78.0029 49.2625 78.5029 49.3825C79.0029 49.5025 79.5129 49.5625 80.0129 49.5625C81.0829 49.5625 81.8929 49.3025 82.4429 48.7925C82.9929 48.2825 83.3129 47.4525 83.4029 46.3225H78.6029V44.7625H78.6129Z" fill="white"/>
<path d="M97.413 41.9025H93.773V50.8425H91.933V41.9025H88.293V40.3425H97.413V41.9025Z" fill="white"/>
<path d="M100.293 45.6025C100.293 44.7325 100.403 43.9625 100.633 43.2725C100.863 42.5825 101.193 42.0025 101.633 41.5225C102.073 41.0425 102.613 40.6725 103.243 40.4225C103.873 40.1725 104.603 40.0425 105.413 40.0425C106.263 40.0425 107.013 40.1825 107.653 40.4625C108.293 40.7425 108.823 41.1325 109.253 41.6325C109.683 42.1325 109.993 42.7225 110.203 43.3925C110.413 44.0625 110.513 44.8025 110.513 45.6025C110.513 46.4525 110.393 47.2225 110.163 47.9025C109.933 48.5825 109.593 49.1625 109.163 49.6425C108.733 50.1225 108.193 50.4925 107.563 50.7425C106.933 50.9925 106.213 51.1225 105.413 51.1225C104.533 51.1225 103.773 50.9825 103.133 50.7025C102.493 50.4225 101.963 50.0325 101.543 49.5425C101.123 49.0525 100.813 48.4625 100.603 47.7925C100.393 47.1225 100.293 46.3925 100.293 45.6025ZM102.293 45.6025C102.293 46.0925 102.353 46.5825 102.463 47.0525C102.573 47.5225 102.753 47.9525 103.003 48.3225C103.253 48.6925 103.573 48.9925 103.973 49.2225C104.363 49.4525 104.853 49.5625 105.433 49.5625C107.483 49.5625 108.513 48.2425 108.513 45.6025C108.513 45.0825 108.453 44.5825 108.343 44.1025C108.233 43.6225 108.053 43.2025 107.813 42.8325C107.573 42.4625 107.253 42.1725 106.853 41.9425C106.453 41.7125 105.983 41.6025 105.433 41.6025C104.403 41.6025 103.623 41.9325 103.093 42.5925C102.563 43.2525 102.293 44.2625 102.293 45.6025Z" fill="white"/>
<path d="M122.233 41.9025H117.313V50.8425H115.473V40.3425H122.233V41.9025Z" fill="white"/>
<path d="M125.111 45.6025C125.111 44.7325 125.221 43.9625 125.451 43.2725C125.681 42.5825 126.011 42.0025 126.451 41.5225C126.891 41.0425 127.431 40.6725 128.061 40.4225C128.691 40.1725 129.421 40.0425 130.231 40.0425C131.081 40.0425 131.831 40.1825 132.471 40.4625C133.111 40.7425 133.641 41.1325 134.071 41.6325C134.501 42.1325 134.811 42.7225 135.021 43.3925C135.231 44.0625 135.331 44.8025 135.331 45.6025C135.331 46.4525 135.211 47.2225 134.981 47.9025C134.751 48.5825 134.411 49.1625 133.981 49.6425C133.551 50.1225 133.011 50.4925 132.381 50.7425C131.751 50.9925 131.031 51.1225 130.231 51.1225C129.351 51.1225 128.591 50.9825 127.951 50.7025C127.311 50.4225 126.781 50.0325 126.361 49.5425C125.941 49.0525 125.631 48.4625 125.421 47.7925C125.211 47.1225 125.111 46.3925 125.111 45.6025ZM127.111 45.6025C127.111 46.0925 127.171 46.5825 127.281 47.0525C127.391 47.5225 127.571 47.9525 127.821 48.3225C128.071 48.6925 128.391 48.9925 128.791 49.2225C129.181 49.4525 129.671 49.5625 130.251 49.5625C132.301 49.5625 133.331 48.2425 133.331 45.6025C133.331 45.0825 133.271 44.5825 133.161 44.1025C133.051 43.6225 132.871 43.2025 132.631 42.8325C132.391 42.4625 132.071 42.1725 131.671 41.9425C131.271 41.7125 130.801 41.6025 130.251 41.6025C129.221 41.6025 128.441 41.9325 127.911 42.5925C127.381 43.2525 127.111 44.2625 127.111 45.6025Z" fill="white"/>
<path d="M155.231 46.2625H149.951V50.8425H148.111V40.3425H149.951V44.6225H155.231V40.3425H157.071V50.8425H155.231V46.2625Z" fill="white"/>
<path d="M171.131 49.9825C170.661 50.3325 170.081 50.6025 169.391 50.8125C168.701 51.0225 167.941 51.1225 167.131 51.1225C166.251 51.1225 165.491 50.9925 164.841 50.7325C164.191 50.4725 163.661 50.1025 163.251 49.6225C162.841 49.1425 162.531 48.5625 162.331 47.8825C162.131 47.2025 162.031 46.4425 162.031 45.6025C162.031 43.8025 162.471 42.4225 163.361 41.4725C164.251 40.5225 165.511 40.0425 167.151 40.0425C167.671 40.0425 168.191 40.1025 168.711 40.2125C169.231 40.3225 169.701 40.5425 170.111 40.8525C170.521 41.1625 170.861 41.5925 171.121 42.1425C171.381 42.6925 171.511 43.4025 171.511 44.2825C171.511 44.4925 171.501 44.7425 171.491 45.0225C171.481 45.3025 171.451 45.5725 171.411 45.8425H163.911C163.941 47.0725 164.231 47.9925 164.791 48.6225C165.351 49.2525 166.301 49.5625 167.651 49.5625C168.211 49.5625 168.741 49.4625 169.251 49.2725C169.761 49.0825 170.151 48.8525 170.431 48.5825L171.131 49.9825ZM169.751 44.5225C169.781 43.4525 169.561 42.7025 169.101 42.2625C168.641 41.8225 168.001 41.6025 167.171 41.6025C166.241 41.6025 165.501 41.8225 164.951 42.2625C164.401 42.7025 164.081 43.4525 163.991 44.5225H169.751Z" fill="white"/>
<path d="M187.631 46.9825L188.251 49.0025H188.511L189.011 46.9625L191.191 40.3425H193.071L189.631 49.8425C189.381 50.4925 189.121 51.1325 188.861 51.7425C188.601 52.3525 188.311 52.9025 188.001 53.3725C187.691 53.8425 187.341 54.2225 186.961 54.5125C186.581 54.8025 186.141 54.9425 185.651 54.9425C185.121 54.9425 184.661 54.8825 184.291 54.7625L184.591 53.2025C184.791 53.2725 184.991 53.3025 185.191 53.3025C185.461 53.3025 185.701 53.2725 185.921 53.2025C186.141 53.1325 186.341 53.0125 186.531 52.8425C186.721 52.6725 186.891 52.4225 187.041 52.1125C187.191 51.8025 187.341 51.3925 187.471 50.9025L182.771 40.3425H184.951L187.631 46.9825Z" fill="white"/>
<path d="M204.252 44.8425L204.532 42.7625H204.312L203.332 44.7225L198.412 50.8425H196.992V40.3425H198.832V46.5425L198.692 48.3825H198.912L199.832 46.6025L204.652 40.3425H206.092V50.8425H204.252V44.8425ZM199.832 36.6025C199.902 36.8925 199.992 37.1325 200.112 37.3025C200.232 37.4725 200.372 37.6025 200.532 37.6925C200.692 37.7825 200.872 37.8325 201.082 37.8525C201.292 37.8725 201.502 37.8825 201.732 37.8825C201.962 37.8825 202.172 37.8725 202.382 37.8425C202.592 37.8125 202.772 37.7525 202.932 37.6625C203.092 37.5725 203.232 37.4425 203.352 37.2825C203.472 37.1225 203.562 36.9025 203.632 36.6225L205.072 37.0425C204.922 37.8325 204.542 38.3825 203.922 38.7025C203.302 39.0225 202.562 39.1825 201.692 39.1825C201.282 39.1825 200.882 39.1525 200.492 39.0825C200.102 39.0125 199.752 38.9025 199.442 38.7425C199.132 38.5825 198.862 38.3725 198.642 38.1125C198.422 37.8525 198.272 37.5225 198.192 37.1225L199.832 36.6025Z" fill="white"/>
<path d="M218.972 41.9025H215.332V50.8425H213.492V41.9025H209.852V40.3425H218.972V41.9025Z" fill="white"/>
<path d="M229.992 44.8425L230.272 42.7625H230.052L229.072 44.7225L224.152 50.8425H222.732V40.3425H224.572V46.5425L224.432 48.3825H224.652L225.572 46.6025L230.392 40.3425H231.832V50.8425H229.992V44.8425Z" fill="white"/>
</g>
<defs>
<clipPath id="clip0">
<rect x="0.882812" y="0.272522" width="294.36" height="93.22" fill="white"/>
</clipPath>
</defs>
</svg>
