<svg width="296" height="95" viewBox="0 0 296 95" fill="none" xmlns="http://www.w3.org/2000/svg">
<g clip-path="url(#clip0)">
<path d="M294.135 23.886C294.165 39.376 294.195 54.736 294.225 70.396C219.955 77.966 145.675 85.536 71.4052 93.106C48.2752 87.076 25.1552 81.046 2.03523 75.016C1.97523 56.786 1.92523 38.546 1.86523 20.306C25.0652 14.176 48.2552 8.03601 71.4552 1.90601C145.685 9.23601 219.905 16.556 294.135 23.886Z" fill="#2D2E83" stroke="white" stroke-width="2" stroke-miterlimit="10"/>
<path d="M26.7656 41.896L27.5256 41.856C27.9556 41.826 28.4156 41.796 28.9256 41.766C29.4356 41.736 30.0156 41.716 30.6856 41.716C32.2356 41.716 33.3456 41.936 34.0156 42.366C34.6856 42.796 35.0256 43.446 35.0256 44.296C35.0256 44.766 34.8656 45.236 34.5356 45.706C34.2056 46.176 33.6956 46.526 32.9856 46.736V46.956C33.8656 47.126 34.4956 47.426 34.8756 47.836C35.2556 48.246 35.4456 48.796 35.4456 49.476C35.4456 50.526 35.0156 51.306 34.1456 51.806C33.2756 52.306 31.9756 52.556 30.2256 52.556C29.6356 52.556 29.0856 52.536 28.5656 52.506C28.0456 52.476 27.5356 52.436 27.0456 52.396C26.9956 52.396 26.9456 52.396 26.9056 52.386C26.8656 52.376 26.8156 52.376 26.7656 52.376V41.896ZM30.8856 46.336C31.1756 46.336 31.4556 46.296 31.7256 46.216C31.9956 46.136 32.2356 46.026 32.4456 45.886C32.6556 45.736 32.8256 45.576 32.9556 45.386C33.0856 45.196 33.1456 44.986 33.1456 44.766C33.1456 44.216 32.9556 43.826 32.5756 43.616C32.1956 43.396 31.5456 43.286 30.6256 43.286C30.3156 43.286 30.0056 43.296 29.6956 43.316C29.3856 43.336 29.0156 43.356 28.6056 43.366V46.346H30.8856V46.336ZM28.6056 50.946C28.8956 50.986 29.1856 51.016 29.4556 51.036C29.7356 51.056 30.0756 51.066 30.4856 51.066C31.5256 51.066 32.2856 50.926 32.7456 50.656C33.2056 50.386 33.4356 49.936 33.4356 49.306C33.4356 49.056 33.3856 48.816 33.2956 48.606C33.2056 48.396 33.0556 48.216 32.8356 48.066C32.6256 47.916 32.3356 47.806 31.9756 47.716C31.6156 47.626 31.1656 47.586 30.6356 47.586H28.5956V50.946H28.6056Z" fill="white"/>
<path d="M48.3257 51.676C47.8557 52.006 47.3157 52.256 46.6857 52.426C46.0557 52.596 45.3957 52.676 44.7057 52.676C43.8257 52.676 43.0757 52.546 42.4557 52.276C41.8357 52.006 41.3357 51.636 40.9457 51.156C40.5557 50.676 40.2757 50.096 40.1057 49.416C39.9357 48.736 39.8457 47.986 39.8457 47.156C39.8457 45.386 40.2757 44.016 41.1357 43.046C41.9957 42.076 43.2357 41.596 44.8457 41.596C45.5557 41.596 46.1657 41.656 46.6857 41.786C47.2057 41.916 47.6757 42.066 48.0857 42.256L47.6057 43.756C47.2457 43.566 46.8557 43.426 46.4457 43.316C46.0257 43.206 45.5757 43.156 45.0857 43.156C42.9257 43.156 41.8457 44.486 41.8457 47.156C41.8457 47.666 41.9057 48.156 42.0257 48.626C42.1457 49.096 42.3357 49.516 42.6057 49.886C42.8757 50.256 43.2157 50.546 43.6457 50.776C44.0757 51.006 44.6057 51.116 45.2257 51.116C45.7857 51.116 46.2657 51.036 46.6857 50.886C47.1057 50.736 47.4557 50.546 47.7257 50.336L48.3257 51.676Z" fill="white"/>
<path d="M61.0648 51.526C60.5948 51.876 60.0148 52.146 59.3248 52.356C58.6348 52.566 57.8748 52.666 57.0648 52.666C56.1848 52.666 55.4248 52.536 54.7748 52.276C54.1248 52.016 53.5948 51.646 53.1848 51.166C52.7748 50.686 52.4648 50.106 52.2648 49.426C52.0648 48.746 51.9648 47.986 51.9648 47.146C51.9648 45.346 52.4048 43.966 53.2948 43.016C54.1848 42.066 55.4448 41.586 57.0848 41.586C57.6048 41.586 58.1248 41.646 58.6448 41.756C59.1648 41.866 59.6348 42.086 60.0448 42.396C60.4548 42.706 60.7948 43.136 61.0548 43.686C61.3148 44.236 61.4448 44.946 61.4448 45.826C61.4448 46.036 61.4348 46.286 61.4248 46.566C61.4148 46.846 61.3848 47.116 61.3448 47.386H53.8448C53.8748 48.616 54.1648 49.536 54.7248 50.166C55.2848 50.796 56.2348 51.106 57.5848 51.106C58.1448 51.106 58.6748 51.006 59.1848 50.816C59.6948 50.626 60.0848 50.396 60.3648 50.126L61.0648 51.526ZM59.6848 46.066C59.7148 44.996 59.4948 44.246 59.0348 43.806C58.5748 43.366 57.9348 43.146 57.1048 43.146C56.1748 43.146 55.4348 43.366 54.8848 43.806C54.3348 44.246 54.0148 44.996 53.9248 46.066H59.6848Z" fill="white"/>
<path d="M77.2847 47.676H76.1447V52.396H74.3047V41.896H76.1447V46.676L77.2447 46.316L80.8247 41.896H82.8447L79.4247 45.976H79.4447L78.3647 46.756L79.6647 47.656L83.3647 52.396H81.0447L77.2847 47.676Z" fill="white"/>
<path d="M86.4648 47.146C86.4648 46.276 86.5748 45.506 86.8048 44.816C87.0348 44.126 87.3648 43.546 87.8048 43.066C88.2448 42.586 88.7848 42.216 89.4148 41.966C90.0448 41.716 90.7748 41.586 91.5848 41.586C92.4348 41.586 93.1848 41.726 93.8248 42.006C94.4648 42.286 94.9948 42.676 95.4248 43.176C95.8548 43.676 96.1648 44.266 96.3748 44.936C96.5848 45.606 96.6848 46.346 96.6848 47.146C96.6848 47.996 96.5648 48.766 96.3348 49.446C96.1048 50.126 95.7648 50.706 95.3348 51.186C94.9048 51.666 94.3648 52.036 93.7348 52.286C93.1048 52.536 92.3848 52.666 91.5848 52.666C90.7048 52.666 89.9448 52.526 89.3048 52.246C88.6648 51.966 88.1348 51.576 87.7148 51.086C87.2948 50.596 86.9848 50.006 86.7748 49.336C86.5648 48.666 86.4648 47.936 86.4648 47.146ZM88.4648 47.146C88.4648 47.636 88.5248 48.126 88.6348 48.596C88.7448 49.066 88.9248 49.496 89.1748 49.866C89.4248 50.236 89.7448 50.536 90.1448 50.766C90.5348 50.996 91.0248 51.106 91.6048 51.106C93.6548 51.106 94.6848 49.786 94.6848 47.146C94.6848 46.626 94.6248 46.126 94.5148 45.646C94.4048 45.166 94.2248 44.746 93.9848 44.376C93.7448 44.006 93.4248 43.716 93.0248 43.486C92.6248 43.256 92.1548 43.146 91.6048 43.146C90.5748 43.146 89.7948 43.476 89.2648 44.136C88.7348 44.796 88.4648 45.806 88.4648 47.146Z" fill="white"/>
<path d="M108.766 47.816H103.486V52.396H101.646V41.896H103.486V46.176H108.766V41.896H110.606V52.396H108.766V47.816Z" fill="white"/>
<path d="M117.965 45.906C118.395 45.836 118.785 45.796 119.145 45.776C119.505 45.756 119.825 45.746 120.105 45.746C120.905 45.746 121.585 45.826 122.135 45.986C122.685 46.146 123.135 46.366 123.485 46.646C123.835 46.926 124.085 47.256 124.235 47.636C124.385 48.016 124.465 48.426 124.465 48.866C124.465 50.136 124.045 51.056 123.205 51.636C122.365 52.216 121.055 52.506 119.265 52.506C118.705 52.506 118.175 52.496 117.665 52.486C117.155 52.476 116.645 52.446 116.125 52.406V41.896H117.965V45.906ZM117.965 50.836C118.525 50.916 119.085 50.956 119.655 50.956C120.615 50.956 121.325 50.786 121.785 50.446C122.245 50.106 122.465 49.636 122.465 49.036C122.465 48.506 122.245 48.056 121.805 47.696C121.365 47.336 120.665 47.156 119.715 47.156C119.465 47.156 119.185 47.166 118.885 47.186C118.585 47.206 118.275 47.246 117.975 47.316V50.836H117.965Z" fill="white"/>
<path d="M131.806 47.676H130.666V52.396H128.826V41.896H130.666V46.676L131.766 46.316L135.346 41.896H137.366L133.946 45.976H133.966L132.886 46.756L134.186 47.656L137.886 52.396H135.566L131.806 47.676Z" fill="white"/>
<path d="M149.026 46.396L149.306 44.316H149.086L148.106 46.276L143.186 52.396H141.766V41.896H143.606V48.096L143.466 49.936H143.686L144.606 48.156L149.426 41.896H150.866V52.396H149.026V46.396Z" fill="white"/>
<path d="M163.646 47.146C163.646 46.276 163.756 45.506 163.986 44.816C164.216 44.126 164.546 43.546 164.986 43.066C165.426 42.586 165.966 42.216 166.596 41.966C167.226 41.716 167.956 41.586 168.766 41.586C169.616 41.586 170.366 41.726 171.006 42.006C171.646 42.286 172.176 42.676 172.606 43.176C173.036 43.676 173.346 44.266 173.556 44.936C173.766 45.606 173.866 46.346 173.866 47.146C173.866 47.996 173.746 48.766 173.516 49.446C173.286 50.126 172.946 50.706 172.516 51.186C172.086 51.666 171.546 52.036 170.916 52.286C170.286 52.536 169.566 52.666 168.766 52.666C167.886 52.666 167.126 52.526 166.486 52.246C165.846 51.966 165.316 51.576 164.896 51.086C164.476 50.596 164.166 50.006 163.956 49.336C163.746 48.666 163.646 47.936 163.646 47.146ZM165.646 47.146C165.646 47.636 165.706 48.126 165.816 48.596C165.926 49.066 166.106 49.496 166.356 49.866C166.606 50.236 166.926 50.536 167.326 50.766C167.716 50.996 168.206 51.106 168.786 51.106C170.836 51.106 171.866 49.786 171.866 47.146C171.866 46.626 171.806 46.126 171.696 45.646C171.586 45.166 171.406 44.746 171.166 44.376C170.926 44.006 170.606 43.716 170.206 43.486C169.806 43.256 169.336 43.146 168.786 43.146C167.756 43.146 166.976 43.476 166.446 44.136C165.916 44.796 165.646 45.806 165.646 47.146Z" fill="white"/>
<path d="M185.866 43.446H182.226V52.386H180.386V43.446H176.746V41.896H185.866V43.446Z" fill="white"/>
<path d="M190.996 44.016C191.486 43.346 192.036 42.876 192.656 42.596C193.276 42.316 194.036 42.176 194.936 42.176C196.326 42.176 197.416 42.596 198.196 43.436C198.976 44.276 199.366 45.506 199.366 47.116C199.366 48.036 199.246 48.846 199.016 49.546C198.786 50.246 198.446 50.826 198.006 51.286C197.566 51.746 197.036 52.096 196.406 52.326C195.776 52.556 195.076 52.676 194.286 52.676C192.576 52.676 191.296 52.156 190.436 51.116C189.576 50.076 189.146 48.446 189.146 46.216C189.146 45.016 189.216 43.996 189.346 43.156C189.476 42.316 189.676 41.616 189.936 41.056C190.196 40.496 190.506 40.056 190.876 39.726C191.246 39.396 191.656 39.146 192.106 38.976C192.556 38.806 193.056 38.686 193.596 38.616C194.136 38.546 194.716 38.486 195.326 38.436C196.096 38.366 196.716 38.296 197.186 38.216C197.656 38.136 198.036 37.996 198.326 37.796L198.526 39.436C198.216 39.626 197.816 39.766 197.296 39.856C196.786 39.936 196.076 40.016 195.156 40.076C194.516 40.116 193.956 40.186 193.456 40.296C192.956 40.406 192.526 40.586 192.156 40.856C191.786 41.126 191.486 41.506 191.256 42.006C191.026 42.506 190.876 43.166 190.796 43.976L190.996 44.016ZM191.146 47.396C191.146 47.906 191.206 48.376 191.326 48.826C191.446 49.276 191.636 49.666 191.886 50.006C192.146 50.346 192.466 50.616 192.866 50.816C193.256 51.016 193.726 51.116 194.266 51.116C196.336 51.116 197.366 49.846 197.366 47.296C197.366 46.786 197.306 46.316 197.196 45.886C197.086 45.456 196.916 45.076 196.686 44.756C196.456 44.436 196.156 44.186 195.796 44.006C195.436 43.826 195.006 43.736 194.526 43.736C193.346 43.736 192.486 44.056 191.946 44.686C191.416 45.316 191.146 46.216 191.146 47.396Z" fill="white"/>
<path d="M204.326 41.896H205.566L205.926 43.236H206.106C206.466 42.716 206.936 42.316 207.506 42.026C208.076 41.736 208.726 41.596 209.446 41.596C210.966 41.596 212.096 42.016 212.846 42.866C213.596 43.716 213.966 45.066 213.966 46.916C213.966 47.796 213.846 48.596 213.596 49.306C213.346 50.016 212.996 50.626 212.536 51.126C212.076 51.626 211.516 52.006 210.856 52.276C210.196 52.546 209.456 52.676 208.646 52.676C208.376 52.676 208.136 52.666 207.916 52.646C207.696 52.626 207.496 52.596 207.306 52.546C207.116 52.496 206.936 52.446 206.746 52.386C206.556 52.326 206.366 52.256 206.166 52.176V56.396H204.326V41.896ZM209.006 43.146C208.216 43.146 207.586 43.346 207.136 43.746C206.686 44.146 206.366 44.756 206.166 45.586V50.426C206.466 50.636 206.806 50.806 207.156 50.926C207.506 51.046 207.966 51.106 208.526 51.106C209.596 51.106 210.436 50.756 211.046 50.046C211.656 49.336 211.956 48.286 211.956 46.886C211.956 45.756 211.726 44.846 211.276 44.166C210.846 43.486 210.076 43.146 209.006 43.146Z" fill="white"/>
<path d="M218.365 47.146C218.365 46.276 218.475 45.506 218.705 44.816C218.935 44.126 219.265 43.546 219.705 43.066C220.145 42.586 220.685 42.216 221.315 41.966C221.945 41.716 222.675 41.586 223.485 41.586C224.335 41.586 225.085 41.726 225.725 42.006C226.365 42.286 226.895 42.676 227.325 43.176C227.755 43.676 228.065 44.266 228.275 44.936C228.485 45.606 228.585 46.346 228.585 47.146C228.585 47.996 228.465 48.766 228.235 49.446C228.005 50.126 227.665 50.706 227.235 51.186C226.805 51.666 226.265 52.036 225.635 52.286C225.005 52.536 224.285 52.666 223.485 52.666C222.605 52.666 221.845 52.526 221.205 52.246C220.565 51.966 220.035 51.576 219.615 51.086C219.195 50.596 218.885 50.006 218.675 49.336C218.465 48.666 218.365 47.936 218.365 47.146ZM220.365 47.146C220.365 47.636 220.425 48.126 220.535 48.596C220.645 49.066 220.825 49.496 221.075 49.866C221.325 50.236 221.645 50.536 222.045 50.766C222.435 50.996 222.925 51.106 223.505 51.106C225.555 51.106 226.585 49.786 226.585 47.146C226.585 46.626 226.525 46.126 226.415 45.646C226.305 45.166 226.125 44.746 225.885 44.376C225.645 44.006 225.325 43.716 224.925 43.486C224.525 43.256 224.055 43.146 223.505 43.146C222.475 43.146 221.695 43.476 221.165 44.136C220.635 44.796 220.365 45.806 220.365 47.146Z" fill="white"/>
<path d="M241.466 51.676C240.996 52.006 240.456 52.256 239.826 52.426C239.196 52.596 238.536 52.676 237.846 52.676C236.966 52.676 236.216 52.546 235.596 52.276C234.976 52.006 234.476 51.636 234.086 51.156C233.696 50.676 233.416 50.096 233.246 49.416C233.076 48.736 232.986 47.986 232.986 47.156C232.986 45.386 233.416 44.016 234.276 43.046C235.136 42.076 236.376 41.596 237.986 41.596C238.696 41.596 239.306 41.656 239.826 41.786C240.346 41.916 240.816 42.066 241.226 42.256L240.746 43.756C240.386 43.566 239.996 43.426 239.586 43.316C239.166 43.206 238.716 43.156 238.226 43.156C236.066 43.156 234.986 44.486 234.986 47.156C234.986 47.666 235.046 48.156 235.166 48.626C235.286 49.096 235.476 49.516 235.746 49.886C236.016 50.256 236.356 50.546 236.786 50.776C237.216 51.006 237.746 51.116 238.366 51.116C238.926 51.116 239.406 51.036 239.826 50.886C240.246 50.736 240.596 50.546 240.866 50.336L241.466 51.676Z" fill="white"/>
<path d="M253.385 46.396L253.665 44.316H253.445L252.465 46.276L247.545 52.396H246.125V41.896H247.965V48.096L247.825 49.936H248.045L248.965 48.156L253.785 41.896H255.225V52.396H253.385V46.396V46.396Z" fill="white"/>
<path d="M270.426 46.446L270.546 44.306H270.306L269.416 45.946L266.746 49.926H266.126L263.286 45.946L262.486 44.306H262.266L262.446 46.426V52.386H260.746V41.896H262.666L265.806 46.516L266.566 47.976L267.396 46.476L270.306 41.896H272.266V52.396H270.426V46.446Z" fill="white"/>
</g>
<defs>
<clipPath id="clip0">
<rect x="0.865234" y="0.895996" width="294.36" height="93.22" fill="white"/>
</clipPath>
</defs>
</svg>
