<svg width="295" height="95" viewBox="0 0 295 95" fill="none" xmlns="http://www.w3.org/2000/svg">
<g clip-path="url(#clip0)">
<path d="M293.297 24.4396C293.287 39.9296 293.277 55.2896 293.267 70.9496C218.977 78.3296 144.677 85.7096 70.3871 93.0796C47.2771 86.9896 24.1671 80.8996 1.05711 74.8096C1.04711 56.5796 1.04711 38.3396 1.03711 20.0996C24.2471 14.0296 47.4571 7.95958 70.6771 1.87958C144.877 9.39958 219.087 16.9196 293.297 24.4396Z" fill="#AEB8DF" stroke="black" stroke-width="2" stroke-miterlimit="10"/>
<path d="M39.0273 42.9096L39.7873 42.8696C40.2173 42.8396 40.6773 42.8096 41.1873 42.7796C41.6973 42.7496 42.2773 42.7296 42.9473 42.7296C44.4973 42.7296 45.6073 42.9496 46.2773 43.3796C46.9473 43.8096 47.2873 44.4596 47.2873 45.3096C47.2873 45.7796 47.1273 46.2496 46.7973 46.7196C46.4673 47.1896 45.9573 47.5396 45.2473 47.7496V47.9696C46.1273 48.1396 46.7573 48.4396 47.1373 48.8496C47.5173 49.2596 47.7073 49.8096 47.7073 50.4896C47.7073 51.5396 47.2773 52.3196 46.4073 52.8196C45.5373 53.3196 44.2373 53.5696 42.4873 53.5696C41.8973 53.5696 41.3473 53.5496 40.8273 53.5196C40.3073 53.4896 39.7973 53.4496 39.3073 53.4096C39.2573 53.4096 39.2073 53.4096 39.1673 53.3996C39.1273 53.3896 39.0773 53.3896 39.0273 53.3896V42.9096V42.9096ZM43.1473 47.3496C43.4373 47.3496 43.7173 47.3096 43.9873 47.2296C44.2573 47.1496 44.4973 47.0396 44.7073 46.8996C44.9173 46.7496 45.0873 46.5896 45.2173 46.3996C45.3473 46.2096 45.4073 45.9996 45.4073 45.7796C45.4073 45.2296 45.2173 44.8396 44.8373 44.6296C44.4573 44.4096 43.8073 44.2996 42.8873 44.2996C42.5773 44.2996 42.2673 44.3096 41.9573 44.3296C41.6473 44.3496 41.2773 44.3696 40.8673 44.3796V47.3596H43.1473V47.3496ZM40.8673 51.9696C41.1573 52.0096 41.4473 52.0396 41.7173 52.0596C41.9973 52.0796 42.3373 52.0896 42.7473 52.0896C43.7873 52.0896 44.5473 51.9496 45.0073 51.6796C45.4673 51.4096 45.6973 50.9596 45.6973 50.3296C45.6973 50.0796 45.6473 49.8396 45.5573 49.6296C45.4673 49.4196 45.3173 49.2396 45.0973 49.0896C44.8873 48.9396 44.5973 48.8296 44.2373 48.7396C43.8773 48.6496 43.4273 48.6096 42.8973 48.6096H40.8573V51.9696H40.8673Z" fill="black"/>
<path d="M60.5874 52.6896C60.1174 53.0196 59.5774 53.2696 58.9474 53.4396C58.3174 53.6096 57.6574 53.6896 56.9674 53.6896C56.0874 53.6896 55.3374 53.5596 54.7174 53.2896C54.0974 53.0196 53.5974 52.6496 53.2074 52.1696C52.8174 51.6896 52.5374 51.1096 52.3674 50.4296C52.1974 49.7496 52.1074 48.9996 52.1074 48.1696C52.1074 46.3996 52.5374 45.0296 53.3974 44.0596C54.2574 43.0896 55.4974 42.6096 57.1074 42.6096C57.8174 42.6096 58.4274 42.6696 58.9474 42.7996C59.4674 42.9296 59.9374 43.0796 60.3474 43.2696L59.8674 44.7696C59.5074 44.5796 59.1174 44.4396 58.7074 44.3296C58.2874 44.2196 57.8374 44.1696 57.3474 44.1696C55.1874 44.1696 54.1074 45.4996 54.1074 48.1696C54.1074 48.6796 54.1674 49.1696 54.2874 49.6396C54.4074 50.1096 54.5974 50.5296 54.8674 50.8996C55.1374 51.2696 55.4774 51.5596 55.9074 51.7896C56.3374 52.0196 56.8674 52.1296 57.4874 52.1296C58.0474 52.1296 58.5274 52.0496 58.9474 51.8996C59.3674 51.7496 59.7174 51.5596 59.9874 51.3496L60.5874 52.6896Z" fill="black"/>
<path d="M73.3266 52.5496C72.8566 52.8996 72.2766 53.1696 71.5866 53.3796C70.8966 53.5896 70.1366 53.6896 69.3266 53.6896C68.4466 53.6896 67.6866 53.5596 67.0366 53.2996C66.3866 53.0396 65.8566 52.6696 65.4466 52.1896C65.0366 51.7096 64.7266 51.1296 64.5266 50.4496C64.3266 49.7696 64.2266 49.0096 64.2266 48.1696C64.2266 46.3696 64.6666 44.9896 65.5566 44.0396C66.4466 43.0896 67.7066 42.6096 69.3466 42.6096C69.8666 42.6096 70.3866 42.6696 70.9066 42.7796C71.4266 42.8896 71.8966 43.1096 72.3066 43.4196C72.7166 43.7296 73.0566 44.1596 73.3166 44.7096C73.5766 45.2596 73.7066 45.9696 73.7066 46.8496C73.7066 47.0596 73.6966 47.3096 73.6866 47.5896C73.6766 47.8696 73.6466 48.1396 73.6066 48.4096H66.1066C66.1366 49.6396 66.4266 50.5596 66.9866 51.1896C67.5466 51.8196 68.4966 52.1296 69.8466 52.1296C70.4066 52.1296 70.9366 52.0296 71.4466 51.8396C71.9566 51.6496 72.3466 51.4196 72.6266 51.1496L73.3266 52.5496ZM71.9466 47.0896C71.9766 46.0196 71.7566 45.2696 71.2966 44.8296C70.8366 44.3896 70.1966 44.1696 69.3666 44.1696C68.4366 44.1696 67.6966 44.3896 67.1466 44.8296C66.5966 45.2696 66.2766 46.0196 66.1866 47.0896H71.9466Z" fill="black"/>
<path d="M96.2464 47.4695L96.3664 45.3295H96.1264L95.2364 46.9695L92.5664 50.9495H91.9464L89.1064 46.9695L88.3064 45.3295H88.0864L88.2664 47.4495V53.4095H86.5664V42.9095H88.4864L91.6264 47.5295L92.3864 48.9895L93.2164 47.4895L96.1264 42.9095H98.0864V53.4095H96.2464V47.4695Z" fill="black"/>
<path d="M105.447 46.9295C105.877 46.8595 106.267 46.8195 106.637 46.7995C107.007 46.7795 107.337 46.7695 107.627 46.7695C108.397 46.7695 109.047 46.8495 109.577 47.0095C110.107 47.1695 110.527 47.3895 110.847 47.6695C111.167 47.9495 111.397 48.2795 111.527 48.6595C111.657 49.0395 111.727 49.4495 111.727 49.8895C111.727 51.1595 111.337 52.0795 110.567 52.6595C109.797 53.2395 108.537 53.5295 106.787 53.5295C106.227 53.5295 105.687 53.5195 105.167 53.5095C104.647 53.4995 104.127 53.4695 103.607 53.4295V42.9095H105.447V46.9295ZM105.447 51.8495C105.997 51.9295 106.567 51.9695 107.147 51.9695C108.097 51.9695 108.767 51.7995 109.147 51.4695C109.527 51.1395 109.717 50.6595 109.717 50.0495C109.717 49.5195 109.527 49.0695 109.157 48.7095C108.777 48.3495 108.127 48.1695 107.207 48.1695C106.957 48.1695 106.677 48.1795 106.367 48.1995C106.057 48.2195 105.747 48.2595 105.447 48.3295V51.8495V51.8495ZM113.667 42.9095H115.507V53.4095H113.667V42.9095Z" fill="black"/>
<path d="M136.208 44.4695H132.568V53.4095H130.728V44.4695H127.088V42.9095H136.208V44.4695Z" fill="black"/>
<path d="M139.847 43.5696C141.047 42.9996 142.537 42.7096 144.307 42.7096C145.107 42.7096 145.747 42.8096 146.237 43.0196C146.727 43.2296 147.097 43.4896 147.367 43.8096C147.637 44.1296 147.807 44.4896 147.897 44.8796C147.987 45.2696 148.027 45.6596 148.027 46.0496C148.027 46.7796 147.997 47.5196 147.947 48.2596C147.897 48.9996 147.867 49.7996 147.867 50.6696C147.867 51.1796 147.887 51.6696 147.937 52.1396C147.987 52.6096 148.057 53.0496 148.167 53.4496H146.827L146.327 51.8496H146.127C145.977 52.0496 145.797 52.2496 145.587 52.4596C145.377 52.6696 145.117 52.8496 144.827 53.0096C144.537 53.1696 144.197 53.2996 143.817 53.4096C143.437 53.5196 142.997 53.5696 142.507 53.5696C142.017 53.5696 141.557 53.4996 141.147 53.3596C140.737 53.2196 140.377 53.0196 140.077 52.7696C139.777 52.5196 139.537 52.2096 139.367 51.8396C139.197 51.4696 139.107 51.0596 139.107 50.6096C139.107 50.0096 139.237 49.4896 139.497 49.0496C139.757 48.6096 140.097 48.2496 140.507 47.9696C140.917 47.6896 141.387 47.4796 141.917 47.3496C142.447 47.2196 142.967 47.1496 143.487 47.1496C143.897 47.1496 144.247 47.1596 144.537 47.1696C144.827 47.1796 145.067 47.1996 145.257 47.2196C145.447 47.2396 145.617 47.2596 145.747 47.2796C145.877 47.2996 145.997 47.3196 146.107 47.3296C146.137 47.1296 146.157 46.9596 146.167 46.8096C146.177 46.6596 146.187 46.4796 146.187 46.2496C146.187 45.8796 146.147 45.5596 146.067 45.3096C145.987 45.0596 145.857 44.8496 145.677 44.6996C145.497 44.5496 145.257 44.4396 144.947 44.3696C144.637 44.2996 144.267 44.2696 143.827 44.2696C143.577 44.2696 143.297 44.2896 142.987 44.3296C142.677 44.3696 142.377 44.4296 142.067 44.4996C141.757 44.5696 141.457 44.6596 141.157 44.7696C140.857 44.8796 140.587 44.9896 140.347 45.1096L139.847 43.5696ZM146.107 48.6496C145.997 48.6396 145.887 48.6196 145.767 48.5896C145.647 48.5596 145.497 48.5396 145.317 48.5296C145.137 48.5196 144.927 48.4996 144.687 48.4896C144.437 48.4796 144.137 48.4696 143.787 48.4696C142.967 48.4696 142.317 48.6196 141.837 48.9096C141.357 49.1996 141.117 49.6996 141.117 50.4096C141.117 50.9396 141.307 51.3396 141.677 51.6096C142.057 51.8796 142.537 52.0096 143.137 52.0096C143.577 52.0096 143.957 51.9496 144.297 51.8396C144.637 51.7296 144.927 51.5896 145.167 51.4196C145.417 51.2496 145.607 51.0696 145.767 50.8596C145.927 50.6496 146.037 50.4496 146.117 50.2496V48.6496H146.107Z" fill="black"/>
<path d="M163.287 47.4695L163.407 45.3295H163.167L162.277 46.9695L159.607 50.9495H158.987L156.147 46.9695L155.347 45.3295H155.127L155.307 47.4495V53.4095H153.607V42.9095H155.527L158.667 47.5295L159.427 48.9895L160.257 47.4895L163.167 42.9095H165.127V53.4095H163.287V47.4695Z" fill="black"/>
<path d="M179.838 45.0296C180.328 44.3596 180.878 43.8896 181.498 43.6096C182.118 43.3296 182.878 43.1896 183.778 43.1896C185.168 43.1896 186.258 43.6096 187.038 44.4496C187.818 45.2896 188.208 46.5196 188.208 48.1296C188.208 49.0496 188.088 49.8596 187.858 50.5596C187.628 51.2596 187.288 51.8396 186.848 52.2996C186.408 52.7596 185.878 53.1096 185.248 53.3396C184.618 53.5696 183.918 53.6896 183.128 53.6896C181.418 53.6896 180.138 53.1696 179.278 52.1296C178.418 51.0896 177.988 49.4596 177.988 47.2296C177.988 46.0296 178.058 45.0096 178.188 44.1696C178.318 43.3296 178.518 42.6296 178.778 42.0696C179.038 41.5096 179.348 41.0696 179.718 40.7396C180.088 40.4096 180.498 40.1596 180.948 39.9896C181.398 39.8196 181.898 39.6996 182.438 39.6296C182.978 39.5596 183.558 39.4996 184.168 39.4496C184.938 39.3796 185.558 39.3096 186.028 39.2296C186.498 39.1496 186.878 39.0096 187.168 38.8096L187.368 40.4496C187.058 40.6396 186.658 40.7796 186.138 40.8696C185.628 40.9496 184.918 41.0296 183.998 41.0896C183.358 41.1296 182.798 41.1996 182.298 41.3096C181.798 41.4196 181.368 41.5996 180.998 41.8696C180.628 42.1396 180.328 42.5196 180.098 43.0196C179.868 43.5196 179.718 44.1796 179.638 44.9896L179.838 45.0296ZM179.988 48.4096C179.988 48.9196 180.048 49.3896 180.168 49.8396C180.288 50.2896 180.478 50.6796 180.728 51.0196C180.988 51.3596 181.308 51.6296 181.708 51.8296C182.098 52.0296 182.568 52.1296 183.108 52.1296C185.178 52.1296 186.208 50.8596 186.208 48.3096C186.208 47.7996 186.148 47.3296 186.038 46.8996C185.928 46.4696 185.758 46.0896 185.528 45.7696C185.298 45.4496 184.998 45.1996 184.638 45.0196C184.278 44.8396 183.848 44.7496 183.368 44.7496C182.188 44.7496 181.328 45.0696 180.788 45.6996C180.248 46.3396 179.988 47.2396 179.988 48.4096Z" fill="black"/>
<path d="M196.188 49.5495L196.808 51.5695H197.068L197.568 49.5295L199.748 42.9095H201.628L198.188 52.4095C197.938 53.0595 197.678 53.6995 197.418 54.3095C197.158 54.9195 196.868 55.4695 196.558 55.9395C196.248 56.4095 195.898 56.7895 195.518 57.0795C195.138 57.3695 194.698 57.5095 194.208 57.5095C193.678 57.5095 193.218 57.4495 192.848 57.3295L193.148 55.7695C193.348 55.8395 193.548 55.8695 193.748 55.8695C194.018 55.8695 194.258 55.8395 194.478 55.7695C194.698 55.6995 194.898 55.5795 195.088 55.4095C195.278 55.2395 195.448 54.9895 195.598 54.6795C195.748 54.3695 195.898 53.9595 196.028 53.4695L191.328 42.9095H193.508L196.188 49.5495Z" fill="black"/>
<path d="M215.508 56.0495H214.248L213.928 53.4095H205.088L204.728 56.0495H203.508V51.8495H204.848C204.978 51.6895 205.148 51.4095 205.358 51.0095C205.568 50.6095 205.768 50.0495 205.968 49.3395C206.168 48.6295 206.348 47.7395 206.498 46.6895C206.648 45.6395 206.738 44.3795 206.748 42.9095H213.808V51.8495H215.508V56.0495ZM211.968 51.8495V44.4695H208.408C208.368 45.0695 208.308 45.7095 208.228 46.3895C208.148 47.0695 208.038 47.7395 207.898 48.3995C207.758 49.0595 207.598 49.6895 207.408 50.2895C207.218 50.8895 206.998 51.4095 206.748 51.8495H211.968V51.8495Z" fill="black"/>
<path d="M228.288 52.5496C227.818 52.8996 227.238 53.1696 226.548 53.3796C225.858 53.5896 225.098 53.6896 224.288 53.6896C223.408 53.6896 222.648 53.5596 221.998 53.2996C221.348 53.0396 220.818 52.6696 220.408 52.1896C219.998 51.7096 219.688 51.1296 219.488 50.4496C219.288 49.7696 219.188 49.0096 219.188 48.1696C219.188 46.3696 219.628 44.9896 220.518 44.0396C221.408 43.0896 222.668 42.6096 224.308 42.6096C224.828 42.6096 225.348 42.6696 225.868 42.7796C226.388 42.8896 226.858 43.1096 227.268 43.4196C227.678 43.7296 228.018 44.1596 228.278 44.7096C228.538 45.2596 228.668 45.9696 228.668 46.8496C228.668 47.0596 228.658 47.3096 228.648 47.5896C228.638 47.8696 228.608 48.1396 228.568 48.4096H221.068C221.098 49.6396 221.388 50.5596 221.948 51.1896C222.508 51.8196 223.458 52.1296 224.808 52.1296C225.368 52.1296 225.898 52.0296 226.408 51.8396C226.918 51.6496 227.308 51.4196 227.588 51.1496L228.288 52.5496ZM226.908 47.0896C226.938 46.0196 226.718 45.2696 226.258 44.8296C225.798 44.3896 225.157 44.1696 224.327 44.1696C223.397 44.1696 222.658 44.3896 222.108 44.8296C221.558 45.2696 221.238 46.0196 221.148 47.0896H226.908Z" fill="black"/>
<path d="M243.387 47.4695L243.507 45.3295H243.267L242.377 46.9695L239.707 50.9495H239.087L236.247 46.9695L235.447 45.3295H235.227L235.407 47.4495V53.4095H233.707V42.9095H235.627L238.767 47.5295L239.527 48.9895L240.357 47.4895L243.267 42.9095H245.227V53.4095H243.387V47.4695Z" fill="black"/>
</g>
<defs>
<clipPath id="clip0">
<rect x="0.0371094" y="0.869568" width="294.26" height="93.22" fill="white"/>
</clipPath>
</defs>
</svg>
