<svg width="295" height="95" viewBox="0 0 295 95" fill="none" xmlns="http://www.w3.org/2000/svg">
<g clip-path="url(#clip0)">
<path d="M293.448 23.9154C293.478 39.4054 293.508 54.7654 293.538 70.4254C219.268 77.9954 144.988 85.5654 70.7177 93.1354C47.5877 87.1054 24.4677 81.0754 1.34773 75.0454C1.28773 56.8154 1.23773 38.5754 1.17773 20.3354C24.3777 14.2054 47.5677 8.06542 70.7677 1.93542C144.998 9.26542 219.218 16.5854 293.448 23.9154Z" fill="#9D9D9C" stroke="black" stroke-width="2" stroke-miterlimit="10"/>
<path d="M30.9872 48.3354H25.7072V52.9154H23.8672V42.4154H25.7072V46.6954H30.9872V42.4154H32.8272V52.9154H30.9872V48.3354Z" fill="black"/>
<path d="M46.8871 52.0554C46.4171 52.4054 45.8371 52.6754 45.1471 52.8854C44.4571 53.0954 43.6971 53.1954 42.8871 53.1954C42.0071 53.1954 41.2471 53.0654 40.5971 52.8054C39.9471 52.5454 39.4171 52.1754 39.0071 51.6954C38.5971 51.2154 38.2871 50.6354 38.0871 49.9554C37.8871 49.2754 37.7871 48.5154 37.7871 47.6754C37.7871 45.8754 38.2271 44.4954 39.1171 43.5454C40.0071 42.5954 41.2671 42.1154 42.9071 42.1154C43.4271 42.1154 43.9471 42.1754 44.4671 42.2854C44.9871 42.3954 45.4571 42.6154 45.8671 42.9254C46.2771 43.2354 46.6171 43.6654 46.8771 44.2154C47.1371 44.7654 47.2671 45.4754 47.2671 46.3554C47.2671 46.5654 47.2571 46.8154 47.2471 47.0954C47.2371 47.3754 47.2071 47.6454 47.1671 47.9154H39.6671C39.6971 49.1454 39.9871 50.0654 40.5471 50.6954C41.1071 51.3254 42.0571 51.6354 43.4071 51.6354C43.9671 51.6354 44.4971 51.5354 45.0071 51.3454C45.5171 51.1554 45.9071 50.9254 46.1871 50.6554L46.8871 52.0554ZM45.5071 46.5954C45.5371 45.5254 45.3171 44.7754 44.8571 44.3354C44.3971 43.8954 43.7571 43.6754 42.9271 43.6754C41.9971 43.6754 41.2571 43.8954 40.7071 44.3354C40.1571 44.7754 39.8371 45.5254 39.7471 46.5954H45.5071Z" fill="black"/>
<path d="M67.387 46.9154L67.667 44.8354H67.4469L66.467 46.7954L61.547 52.9154H60.127V42.4154H61.967V48.6154L61.827 50.4554H62.047L62.967 48.6754L67.787 42.4154H69.227V52.9154H67.387V46.9154Z" fill="black"/>
<path d="M81.508 43.9754H76.5881V52.9154H74.748V42.4154H81.508V43.9754Z" fill="black"/>
<path d="M85.2676 42.4154H86.5076L86.8676 43.7554H87.0476C87.4076 43.2354 87.8776 42.8354 88.4476 42.5454C89.0176 42.2554 89.6676 42.1154 90.3876 42.1154C91.9076 42.1154 93.0376 42.5354 93.7876 43.3854C94.5376 44.2354 94.9076 45.5854 94.9076 47.4354C94.9076 48.3154 94.7876 49.1154 94.5376 49.8254C94.2876 50.5354 93.9376 51.1454 93.4776 51.6454C93.0176 52.1454 92.4576 52.5254 91.7976 52.7954C91.1376 53.0654 90.3976 53.1954 89.5876 53.1954C89.3176 53.1954 89.0776 53.1854 88.8576 53.1654C88.6376 53.1454 88.4376 53.1154 88.2476 53.0654C88.0576 53.0154 87.8776 52.9654 87.6876 52.9054C87.4976 52.8454 87.3076 52.7754 87.1076 52.6954V56.9154H85.2676V42.4154ZM89.9476 43.6754C89.1576 43.6754 88.5276 43.8754 88.0776 44.2754C87.6276 44.6754 87.3076 45.2854 87.1076 46.1154V50.9554C87.4076 51.1654 87.7476 51.3354 88.0976 51.4554C88.4476 51.5754 88.9076 51.6354 89.4676 51.6354C90.5376 51.6354 91.3776 51.2854 91.9876 50.5754C92.5976 49.8654 92.8976 48.8154 92.8976 47.4154C92.8976 46.2854 92.6676 45.3754 92.2176 44.6954C91.7776 44.0154 91.0176 43.6754 89.9476 43.6754Z" fill="black"/>
<path d="M99.7478 43.0754C100.948 42.5054 102.438 42.2154 104.208 42.2154C105.008 42.2154 105.648 42.3154 106.138 42.5254C106.628 42.7354 106.998 42.9954 107.268 43.3154C107.538 43.6354 107.708 43.9954 107.798 44.3854C107.888 44.7754 107.928 45.1654 107.928 45.5554C107.928 46.2854 107.898 47.0254 107.848 47.7654C107.798 48.5054 107.768 49.3054 107.768 50.1754C107.768 50.6854 107.788 51.1754 107.838 51.6454C107.888 52.1154 107.958 52.5554 108.068 52.9554H106.728L106.228 51.3554H106.028C105.878 51.5554 105.698 51.7554 105.488 51.9654C105.278 52.1754 105.018 52.3554 104.728 52.5154C104.438 52.6754 104.098 52.8054 103.718 52.9154C103.338 53.0254 102.898 53.0754 102.408 53.0754C101.918 53.0754 101.458 53.0054 101.048 52.8654C100.638 52.7254 100.278 52.5254 99.9778 52.2754C99.6778 52.0254 99.4378 51.7154 99.2678 51.3454C99.0978 50.9754 99.0078 50.5654 99.0078 50.1154C99.0078 49.5154 99.1378 48.9954 99.3978 48.5554C99.6578 48.1154 99.9978 47.7554 100.408 47.4754C100.818 47.1954 101.288 46.9854 101.818 46.8554C102.348 46.7254 102.868 46.6554 103.388 46.6554C103.798 46.6554 104.148 46.6654 104.438 46.6754C104.728 46.6854 104.968 46.7054 105.158 46.7254C105.348 46.7454 105.518 46.7654 105.648 46.7854C105.778 46.8054 105.898 46.8254 106.008 46.8354C106.038 46.6354 106.058 46.4654 106.068 46.3154C106.078 46.1654 106.088 45.9854 106.088 45.7554C106.088 45.3854 106.048 45.0654 105.968 44.8154C105.888 44.5654 105.758 44.3554 105.578 44.2054C105.398 44.0554 105.158 43.9454 104.848 43.8754C104.538 43.8054 104.168 43.7754 103.728 43.7754C103.478 43.7754 103.198 43.7954 102.888 43.8354C102.578 43.8754 102.278 43.9354 101.968 44.0054C101.658 44.0754 101.358 44.1654 101.058 44.2754C100.758 44.3854 100.488 44.4954 100.248 44.6154L99.7478 43.0754ZM106.008 48.1554C105.898 48.1454 105.788 48.1254 105.668 48.0954C105.548 48.0654 105.398 48.0454 105.218 48.0354C105.038 48.0254 104.828 48.0054 104.588 47.9954C104.338 47.9854 104.038 47.9754 103.688 47.9754C102.868 47.9754 102.218 48.1254 101.738 48.4154C101.258 48.7054 101.018 49.2054 101.018 49.9154C101.018 50.4454 101.208 50.8454 101.578 51.1154C101.958 51.3854 102.438 51.5154 103.038 51.5154C103.478 51.5154 103.858 51.4554 104.198 51.3454C104.538 51.2354 104.828 51.0954 105.068 50.9254C105.318 50.7554 105.508 50.5754 105.668 50.3654C105.828 50.1554 105.938 49.9554 106.018 49.7554V48.1554H106.008Z" fill="black"/>
<path d="M120.768 46.9154L121.048 44.8354H120.828L119.848 46.7954L114.928 52.9154H113.508V42.4154H115.348V48.6154L115.208 50.4554H115.428L116.348 48.6754L121.168 42.4154H122.608V52.9154H120.768V46.9154ZM116.348 38.6754C116.418 38.9654 116.508 39.2054 116.628 39.3754C116.748 39.5454 116.888 39.6754 117.048 39.7654C117.208 39.8554 117.388 39.9054 117.598 39.9254C117.808 39.9454 118.018 39.9554 118.248 39.9554C118.478 39.9554 118.688 39.9454 118.898 39.9154C119.108 39.8854 119.288 39.8254 119.448 39.7354C119.608 39.6454 119.748 39.5154 119.868 39.3554C119.988 39.1954 120.078 38.9754 120.148 38.6954L121.588 39.1154C121.438 39.9054 121.058 40.4554 120.438 40.7754C119.818 41.0954 119.078 41.2554 118.208 41.2554C117.798 41.2554 117.398 41.2254 117.008 41.1554C116.618 41.0854 116.268 40.9754 115.958 40.8154C115.648 40.6554 115.378 40.4454 115.158 40.1854C114.938 39.9254 114.788 39.5954 114.708 39.1954L116.348 38.6754Z" fill="black"/>
<path d="M143.867 52.1954C143.397 52.5254 142.857 52.7754 142.227 52.9454C141.597 53.1154 140.937 53.1954 140.247 53.1954C139.367 53.1954 138.617 53.0654 137.997 52.7954C137.377 52.5254 136.877 52.1554 136.487 51.6754C136.097 51.1954 135.817 50.6154 135.647 49.9354C135.477 49.2554 135.387 48.5054 135.387 47.6754C135.387 45.9054 135.817 44.5354 136.677 43.5654C137.537 42.5954 138.777 42.1154 140.387 42.1154C141.097 42.1154 141.707 42.1754 142.227 42.3054C142.747 42.4354 143.217 42.5854 143.627 42.7754L143.147 44.2754C142.787 44.0854 142.397 43.9454 141.987 43.8354C141.567 43.7254 141.117 43.6754 140.627 43.6754C138.467 43.6754 137.387 45.0054 137.387 47.6754C137.387 48.1854 137.447 48.6754 137.567 49.1454C137.687 49.6154 137.877 50.0354 138.147 50.4054C138.417 50.7754 138.757 51.0654 139.187 51.2954C139.617 51.5254 140.147 51.6354 140.767 51.6354C141.327 51.6354 141.807 51.5554 142.227 51.4054C142.647 51.2554 142.997 51.0654 143.267 50.8554L143.867 52.1954Z" fill="black"/>
<path d="M147.508 47.6754C147.508 46.8054 147.618 46.0354 147.848 45.3454C148.078 44.6554 148.408 44.0754 148.848 43.5954C149.288 43.1154 149.828 42.7454 150.458 42.4954C151.088 42.2454 151.818 42.1154 152.628 42.1154C153.478 42.1154 154.228 42.2554 154.868 42.5354C155.508 42.8154 156.038 43.2054 156.468 43.7054C156.898 44.2054 157.208 44.7954 157.418 45.4654C157.628 46.1354 157.728 46.8754 157.728 47.6754C157.728 48.5254 157.608 49.2954 157.378 49.9754C157.148 50.6554 156.808 51.2354 156.378 51.7154C155.948 52.1954 155.408 52.5654 154.778 52.8154C154.148 53.0654 153.428 53.1954 152.628 53.1954C151.748 53.1954 150.988 53.0554 150.348 52.7754C149.708 52.4954 149.178 52.1054 148.758 51.6154C148.338 51.1254 148.028 50.5354 147.818 49.8654C147.608 49.1954 147.508 48.4654 147.508 47.6754ZM149.508 47.6754C149.508 48.1654 149.568 48.6554 149.678 49.1254C149.788 49.5954 149.968 50.0254 150.218 50.3954C150.468 50.7654 150.788 51.0654 151.188 51.2954C151.578 51.5254 152.068 51.6354 152.648 51.6354C154.698 51.6354 155.728 50.3154 155.728 47.6754C155.728 47.1554 155.668 46.6554 155.558 46.1754C155.448 45.6954 155.268 45.2754 155.028 44.9054C154.788 44.5354 154.468 44.2454 154.068 44.0154C153.668 43.7854 153.198 43.6754 152.648 43.6754C151.618 43.6754 150.838 44.0054 150.308 44.6654C149.778 45.3254 149.508 46.3254 149.508 47.6754Z" fill="black"/>
<path d="M178.427 52.1954C177.957 52.5254 177.417 52.7754 176.787 52.9454C176.157 53.1154 175.497 53.1954 174.807 53.1954C173.927 53.1954 173.177 53.0654 172.557 52.7954C171.937 52.5254 171.437 52.1554 171.047 51.6754C170.657 51.1954 170.377 50.6154 170.207 49.9354C170.037 49.2554 169.947 48.5054 169.947 47.6754C169.947 45.9054 170.377 44.5354 171.237 43.5654C172.097 42.5954 173.337 42.1154 174.947 42.1154C175.657 42.1154 176.267 42.1754 176.787 42.3054C177.307 42.4354 177.777 42.5854 178.187 42.7754L177.707 44.2754C177.347 44.0854 176.957 43.9454 176.547 43.8354C176.127 43.7254 175.677 43.6754 175.187 43.6754C173.027 43.6754 171.947 45.0054 171.947 47.6754C171.947 48.1854 172.007 48.6754 172.127 49.1454C172.247 49.6154 172.437 50.0354 172.707 50.4054C172.977 50.7754 173.317 51.0654 173.747 51.2954C174.177 51.5254 174.707 51.6354 175.327 51.6354C175.887 51.6354 176.367 51.5554 176.787 51.4054C177.207 51.2554 177.557 51.0654 177.827 50.8554L178.427 52.1954Z" fill="black"/>
<path d="M192.768 46.9754L192.888 44.8354H192.648L191.758 46.4754L189.088 50.4554H188.468L185.628 46.4754L184.828 44.8354H184.608L184.788 46.9554V52.9154H183.088V42.4154H185.008L188.148 47.0354L188.908 48.4954L189.738 46.9954L192.648 42.4154H194.608V52.9154H192.768V46.9754Z" fill="black"/>
<path d="M208.666 52.0554C208.196 52.4054 207.616 52.6754 206.926 52.8854C206.236 53.0954 205.476 53.1954 204.666 53.1954C203.786 53.1954 203.026 53.0654 202.376 52.8054C201.726 52.5454 201.196 52.1754 200.786 51.6954C200.376 51.2154 200.066 50.6354 199.866 49.9554C199.666 49.2754 199.566 48.5154 199.566 47.6754C199.566 45.8754 200.006 44.4954 200.896 43.5454C201.786 42.5954 203.046 42.1154 204.686 42.1154C205.206 42.1154 205.726 42.1754 206.246 42.2854C206.766 42.3954 207.236 42.6154 207.646 42.9254C208.056 43.2354 208.396 43.6654 208.656 44.2154C208.916 44.7654 209.046 45.4754 209.046 46.3554C209.046 46.5654 209.036 46.8154 209.026 47.0954C209.016 47.3754 208.986 47.6454 208.946 47.9154H201.446C201.476 49.1454 201.766 50.0654 202.326 50.6954C202.886 51.3254 203.836 51.6354 205.186 51.6354C205.746 51.6354 206.276 51.5354 206.786 51.3454C207.296 51.1554 207.686 50.9254 207.966 50.6554L208.666 52.0554ZM207.286 46.5954C207.316 45.5254 207.096 44.7754 206.636 44.3354C206.176 43.8954 205.536 43.6754 204.706 43.6754C203.776 43.6754 203.036 43.8954 202.486 44.3354C201.936 44.7754 201.616 45.5254 201.526 46.5954H207.286Z" fill="black"/>
<path d="M214.088 42.4154H215.328L215.688 43.7554H215.868C216.228 43.2354 216.698 42.8354 217.268 42.5454C217.838 42.2554 218.488 42.1154 219.208 42.1154C220.728 42.1154 221.858 42.5354 222.608 43.3854C223.358 44.2354 223.728 45.5854 223.728 47.4354C223.728 48.3154 223.608 49.1154 223.358 49.8254C223.108 50.5354 222.758 51.1454 222.298 51.6454C221.838 52.1454 221.278 52.5254 220.618 52.7954C219.958 53.0654 219.218 53.1954 218.408 53.1954C218.138 53.1954 217.898 53.1854 217.678 53.1654C217.458 53.1454 217.258 53.1154 217.068 53.0654C216.878 53.0154 216.698 52.9654 216.508 52.9054C216.318 52.8454 216.128 52.7754 215.928 52.6954V56.9154H214.088V42.4154ZM218.768 43.6754C217.978 43.6754 217.348 43.8754 216.898 44.2754C216.448 44.6754 216.128 45.2854 215.928 46.1154V50.9554C216.228 51.1654 216.568 51.3354 216.918 51.4554C217.268 51.5754 217.728 51.6354 218.288 51.6354C219.358 51.6354 220.198 51.2854 220.808 50.5754C221.418 49.8654 221.718 48.8154 221.718 47.4154C221.718 46.2854 221.488 45.3754 221.038 44.6954C220.598 44.0154 219.838 43.6754 218.768 43.6754Z" fill="black"/>
<path d="M235.727 43.9754H232.087V52.9154H230.247V43.9754H226.607V42.4154H235.727V43.9754Z" fill="black"/>
<path d="M241.326 46.4354C241.756 46.3654 242.146 46.3254 242.506 46.3054C242.866 46.2854 243.186 46.2754 243.466 46.2754C244.266 46.2754 244.946 46.3554 245.496 46.5154C246.046 46.6754 246.496 46.8954 246.846 47.1754C247.196 47.4554 247.446 47.7854 247.596 48.1654C247.746 48.5454 247.826 48.9554 247.826 49.3954C247.826 50.6654 247.406 51.5854 246.566 52.1654C245.726 52.7454 244.416 53.0354 242.626 53.0354C242.066 53.0354 241.536 53.0254 241.026 53.0154C240.516 53.0054 240.006 52.9754 239.486 52.9354V42.4154H241.326V46.4354ZM241.326 51.3554C241.886 51.4354 242.446 51.4754 243.016 51.4754C243.976 51.4754 244.686 51.3054 245.146 50.9654C245.606 50.6254 245.826 50.1554 245.826 49.5554C245.826 49.0254 245.606 48.5754 245.166 48.2154C244.726 47.8554 244.026 47.6754 243.076 47.6754C242.826 47.6754 242.546 47.6854 242.246 47.7054C241.946 47.7254 241.636 47.7654 241.336 47.8354V51.3554H241.326Z" fill="black"/>
<path d="M261.287 53.1954C260.457 53.1954 259.757 53.0754 259.167 52.8354C258.577 52.5954 258.098 52.2654 257.708 51.8354C257.318 51.4054 257.028 50.8954 256.838 50.2854C256.648 49.6754 256.518 49.0054 256.468 48.2754H254.028V52.9154H252.188V42.4154H254.028V46.7154H256.488C256.618 45.2654 257.077 44.1354 257.857 43.3254C258.637 42.5154 259.797 42.1154 261.327 42.1154C262.167 42.1154 262.887 42.2554 263.477 42.5254C264.067 42.7954 264.558 43.1854 264.938 43.6754C265.318 44.1654 265.598 44.7554 265.778 45.4354C265.958 46.1154 266.048 46.8654 266.048 47.6754C266.048 49.4054 265.658 50.7654 264.868 51.7354C264.078 52.7054 262.887 53.1954 261.287 53.1954ZM258.308 47.6754C258.308 48.2254 258.357 48.7354 258.447 49.2154C258.537 49.6954 258.698 50.1154 258.928 50.4754C259.148 50.8354 259.458 51.1154 259.838 51.3254C260.218 51.5354 260.707 51.6354 261.287 51.6354C262.277 51.6354 262.988 51.3154 263.408 50.6754C263.828 50.0354 264.048 49.0354 264.048 47.6754C264.048 47.1454 264.007 46.6354 263.917 46.1454C263.827 45.6554 263.678 45.2354 263.468 44.8654C263.258 44.4954 262.968 44.2054 262.618 43.9954C262.258 43.7854 261.808 43.6754 261.268 43.6754C260.218 43.6754 259.467 43.9954 259.007 44.6454C258.537 45.2954 258.308 46.3054 258.308 47.6754Z" fill="black"/>
</g>
<defs>
<clipPath id="clip0">
<rect x="0.177734" y="0.925415" width="294.36" height="93.22" fill="white"/>
</clipPath>
</defs>
</svg>
