<svg width="120" height="121" viewBox="0 0 120 121" fill="none" xmlns="http://www.w3.org/2000/svg">
<g clip-path="url(#clip0)">
<path d="M17.8898 81.3222C19.044 78.7468 20.212 76.1769 21.351 73.5945C22.9701 69.925 24.5713 66.2457 26.2105 62.4981C32.9652 65.4631 39.6607 68.4017 46.4732 71.3917C45.7559 73.2819 45.0481 75.1515 44.3065 77.1047C40.7158 75.5153 37.2174 73.9691 33.5565 72.3478C40.3389 84.0693 53.7167 92.5871 69.7896 89.5096C85.0715 86.5884 96.3827 73.1274 96.6412 57.8258C96.9099 41.8819 86.3577 27.9168 70.9886 24.0342C62.4183 21.8692 54.2193 22.9178 46.5497 27.2206C38.9115 31.5057 33.7729 37.911 30.9507 46.294C28.8833 45.6928 26.8778 45.1097 24.8076 44.5085C26.0265 41.206 27.4234 38.076 29.4538 35.3447C39.656 21.6238 53.1462 15.2482 70.4187 18.0774C79.8298 19.6196 87.66 24.2826 93.826 31.6419C104.777 44.706 106.507 62.5532 97.9882 77.1766C86.4965 96.9033 61.4688 102.663 42.3025 90.4041C36.477 86.6783 31.9036 81.7362 28.491 75.7244C28.3705 75.511 28.228 75.3085 28.001 74.9559C26.6876 78.0383 25.4352 80.9769 24.1516 83.9936C22.0691 83.1315 20.0484 82.2959 18.0278 81.4602C17.9823 81.4147 17.9367 81.3691 17.8898 81.3222Z" fill="white"/>
</g>
<defs>
<clipPath id="clip0">
<rect x="56.8184" y="120.25" width="80" height="89" transform="rotate(-135 56.8184 120.25)" fill="white"/>
</clipPath>
</defs>
</svg>
